<svg width="32" height="32" viewBox="0 0 32 32" fill="none" xmlns="http://www.w3.org/2000/svg">
<path opacity="0.4" d="M21.7772 29.3331H10.2217C5.70261 29.3331 2.66675 26.1636 2.66675 21.4455V10.5554C2.66675 5.83726 5.70261 2.66644 10.2217 2.66644H21.7785C26.2976 2.66644 29.3334 5.83726 29.3334 10.5554V21.4455C29.3334 26.1636 26.2976 29.3331 21.7772 29.3331Z" fill="black"/>
<path fill-rule="evenodd" clip-rule="evenodd" d="M14.9933 11.5664C14.9933 13.3931 13.5066 14.8798 11.68 14.8798C9.85198 14.8798 8.36665 13.3931 8.36665 11.5664C8.36665 9.73977 9.85198 8.25177 11.68 8.25177C13.5066 8.25177 14.9933 9.73977 14.9933 11.5664ZM25.8672 18.7832C26.1779 19.0845 26.4006 19.4285 26.5472 19.7952C26.9912 20.9045 26.7606 22.2379 26.2859 23.3365C25.7232 24.6446 24.6459 25.6325 23.2886 26.0645C22.6859 26.2579 22.0539 26.3405 21.4232 26.3405H10.2486C9.13658 26.3405 8.15258 26.0819 7.34591 25.5965C6.84058 25.2925 6.75125 24.5926 7.12591 24.1365C7.75258 23.3765 8.37125 22.6139 8.99525 21.8446C10.1846 20.3726 10.9859 19.9459 11.8766 20.3205C12.2379 20.4752 12.6006 20.7086 12.9739 20.9539C13.9686 21.6125 15.3512 22.5166 17.1726 21.5352C18.4175 20.8545 19.1402 19.6896 19.7692 18.6757L19.7819 18.6552C19.8242 18.5874 19.8662 18.5195 19.9081 18.4519C20.1219 18.1063 20.3326 17.7659 20.5712 17.4526C20.8672 17.0646 21.9659 15.8512 23.3859 16.7152C24.2912 17.2592 25.0526 17.9952 25.8672 18.7832Z" fill="black"/>
</svg>
