<svg width="32" height="32" viewBox="0 0 32 32" fill="none" xmlns="http://www.w3.org/2000/svg">
<path opacity="0.4" d="M29.3332 15.9997C29.3332 23.3637 23.3638 29.333 15.9998 29.333C8.63584 29.333 2.6665 23.3637 2.6665 15.9997C2.6665 8.63699 8.63584 2.66632 15.9998 2.66632C23.3638 2.66632 29.3332 8.63699 29.3332 15.9997Z" fill="black"/>
<path d="M21.1463 11.6063L18.9863 18.4329C18.9063 18.7129 18.6796 18.9396 18.3996 19.0209L11.5996 21.1529C11.1463 21.3009 10.7063 20.8596 10.853 20.4063L12.9863 13.5663C13.0663 13.2863 13.293 13.0729 13.573 12.9796L20.3996 10.8463C20.8663 10.6996 21.293 11.1396 21.1463 11.6063Z" fill="black"/>
</svg>
