<svg width="28" height="28" viewBox="0 0 28 28" fill="none" xmlns="http://www.w3.org/2000/svg">
<path opacity="0.4" d="M20.2194 27.3197H7.78016C5.85147 27.4396 3.9574 26.7709 2.53219 25.4683C1.22952 24.0417 0.560874 22.1477 0.680752 20.2203V7.77985C0.560874 5.8525 1.22819 3.95846 2.53086 2.53193C3.9574 1.22927 5.85147 0.560631 7.78016 0.680507H20.2194C22.1455 0.560631 24.0382 1.22794 25.4634 2.5306C26.7648 3.95846 27.4347 5.85117 27.3202 7.77985V20.2203C27.4387 22.1477 26.7714 24.0417 25.4687 25.4683C24.0422 26.7709 22.1481 27.4396 20.2194 27.3197Z" fill="black"/>
<path d="M20.7397 11.8635L12.0027 20.644C11.5483 21.0863 10.9511 21.3334 10.328 21.3334H7.27716C7.10839 21.3334 6.9526 21.2684 6.83576 21.1513C6.71892 21.0342 6.66699 20.8781 6.66699 20.709L6.74489 17.6261C6.75787 17.0147 7.00453 16.4424 7.43294 16.0131L13.6255 9.80821C13.7293 9.70415 13.9111 9.70415 14.0149 9.80821L16.1869 11.9715C16.3297 12.1133 16.5374 12.2056 16.7581 12.2056C17.2384 12.2056 17.6149 11.8154 17.6149 11.3471C17.6149 11.1129 17.524 10.9048 17.3812 10.7487C17.3423 10.6967 15.2742 8.63748 15.2742 8.63748C15.1444 8.5074 15.1444 8.28626 15.2742 8.15618L16.144 7.27163C16.9489 6.46512 18.2471 6.46512 19.052 7.27163L20.7397 8.96268C21.5316 9.75618 21.5316 11.057 20.7397 11.8635Z" fill="black"/>
</svg>
