<svg width="139" height="108" viewBox="0 0 139 108" fill="none" xmlns="http://www.w3.org/2000/svg">
<g clip-path="url(#clip0_2118_10)">
<rect width="139" height="108" rx="28.6831" fill="#145C08" fill-opacity="0.15"/>
<path d="M72.5008 44.2832V41.2096C69.4165 37.2391 67.3494 32.5357 66.5838 27.5152C66.3541 26.0385 64.5057 25.4588 63.5433 26.6073C61.2355 29.3309 59.42 32.5248 58.195 36.0687C61.9355 40.258 66.9447 43.1347 72.5008 44.2832ZM84.7504 32.9951C79.9162 32.9951 76.0007 36.9219 76.0007 41.7565V48.2537C64.5823 47.5756 54.892 40.5424 50.5171 30.5669C49.9156 29.1996 47.9797 29.1231 47.3453 30.4684C45.5298 34.3077 44.5017 38.5954 44.5017 43.1238C44.5017 50.8679 48.2313 58.098 53.8092 63.4577C55.2529 64.8468 56.6638 65.9953 58.0637 67.0453L42.3252 70.983C41.1549 71.2784 40.6299 72.6347 41.2862 73.6519C43.1892 76.5943 47.8922 81.582 58.0419 81.9977C58.9168 82.0305 59.7918 81.7133 60.459 81.1336L67.59 74.9973H76.0007C85.6691 74.9973 93.5001 67.1766 93.5001 57.5073V39.9955L97 32.9951H84.7504ZM84.7504 43.5066C83.7879 43.5066 83.0004 42.7191 83.0004 41.7565C83.0004 40.794 83.7879 40.0064 84.7504 40.0064C85.7129 40.0064 86.5003 40.794 86.5003 41.7565C86.5003 42.7191 85.7129 43.5066 84.7504 43.5066Z" fill="#ACB5AA"/>
</g>
<defs>
<clipPath id="clip0_2118_10">
<rect width="139" height="108" fill="white"/>
</clipPath>
</defs>
</svg>
