<svg width="139" height="108" viewBox="0 0 139 108" fill="none" xmlns="http://www.w3.org/2000/svg">
<g clip-path="url(#clip0_2118_16)">
<rect width="139" height="108" rx="28.6831" fill="#C6C2A9"/>
<path d="M63.6 46.9912C61.62 46.9912 60 48.5662 60 50.4912V59.2412C60 60.2081 59.1945 60.9912 58.2 60.9912C57.2055 60.9912 56.4 60.2081 56.4 59.2412V50.8685C56.4 48.9665 56.931 47.0983 57.9401 45.4665L66.687 31.2925C67.7096 29.6344 67.1584 27.4852 65.4529 26.4898C63.8272 25.5416 61.7719 26.0195 60.6941 27.4972C60.6716 27.5223 60.6244 27.5202 60.6052 27.5497L47.4135 46.7888C46.2255 48.5213 45.6 50.5349 45.6 52.6109V61.386L35.4615 64.6717C34.7446 64.9036 34.121 65.349 33.6792 65.9449C33.2374 66.5407 32.9997 67.2567 33 67.9912V78.4912C33 79.6747 33.9585 81.9913 36.6 81.9913C36.9026 81.9913 37.2086 81.9541 37.5068 81.8786L57.6656 76.7795C63.2805 75.2187 67.2 70.1667 67.2 64.4912V50.4912C67.2 48.5662 65.58 46.9912 63.6 46.9912ZM102.538 64.6804L92.4 61.3948V52.6196C92.4 50.5437 91.7745 48.5301 90.5865 46.7976L77.3947 27.5595C77.3745 27.53 77.3284 27.5333 77.3059 27.507C76.2281 26.0294 74.1727 25.5514 72.5471 26.4997C70.8416 27.4939 70.2904 29.6442 71.313 31.3024L80.0599 45.4763C81.069 47.1082 81.6 48.9763 81.6 50.8783V59.251C81.6 60.2179 80.7945 61.001 79.8 61.001C78.8055 61.001 78 60.2179 78 59.251V50.501C78 48.576 76.38 47.001 74.4 47.001C72.42 47.001 70.8 48.576 70.8 50.501V64.501C70.8 70.1765 74.7195 75.2286 80.3344 76.7883L100.493 81.8873C100.792 81.9628 101.098 82 101.4 82C104.041 82 105 79.6834 105 78.5V68C105 66.4939 104.009 65.1573 102.538 64.6804Z" fill="#816D0E" fill-opacity="0.45"/>
</g>
<defs>
<clipPath id="clip0_2118_16">
<rect width="139" height="108" fill="white"/>
</clipPath>
</defs>
</svg>
