<svg width="24" height="24" viewBox="0 0 24 24" fill="none" xmlns="http://www.w3.org/2000/svg">
<path d="M16.2382 3.00006C14.6474 3.00146 13.1223 3.63452 11.9982 4.76006C11.443 4.19515 10.7815 3.74574 10.0518 3.43776C9.32213 3.12978 8.53868 2.96932 7.74665 2.96564C6.95463 2.96196 6.16971 3.11512 5.43718 3.4163C4.70465 3.71748 4.03899 4.16071 3.47861 4.72044C2.91823 5.28016 2.47421 5.94529 2.17217 6.67747C1.87013 7.40965 1.71604 8.19438 1.71879 8.98641C1.72154 9.77843 1.88107 10.5621 2.18819 11.2921C2.49531 12.0222 2.94394 12.6842 3.50819 13.2401L11.9982 21.7301L20.4882 13.2401C21.3268 12.4004 21.8976 11.3308 22.1284 10.1667C22.3592 9.00257 22.2395 7.79616 21.7846 6.70005C21.3296 5.60394 20.5599 4.66735 19.5726 4.00875C18.5854 3.35015 17.425 2.99912 16.2382 3.00006ZM19.0682 11.8301L11.9982 18.9001L4.92819 11.8301C4.55655 11.4584 4.26175 11.0172 4.06062 10.5316C3.85949 10.0461 3.75597 9.52564 3.75597 9.00006C3.75597 8.47448 3.85949 7.95404 4.06062 7.46847C4.26175 6.9829 4.55655 6.5417 4.92819 6.17006C5.29983 5.79842 5.74103 5.50361 6.2266 5.30248C6.71218 5.10135 7.23261 4.99783 7.75819 4.99783C8.28377 4.99783 8.8042 5.10135 9.28977 5.30248C9.77535 5.50361 10.2165 5.79842 10.5882 6.17006L11.9982 7.59006L13.4082 6.18006C14.1708 5.45258 15.1843 5.04672 16.2382 5.04672C17.2921 5.04672 18.3056 5.45258 19.0682 6.18006C19.4401 6.55155 19.7351 6.9927 19.9364 7.4783C20.1377 7.96389 20.2413 8.4844 20.2413 9.01006C20.2413 9.53572 20.1377 10.0562 19.9364 10.5418C19.7351 11.0274 19.4401 11.4686 19.0682 11.8401V11.8301Z" fill="white"/>
</svg>
