<svg width="9" height="8" viewBox="0 0 9 8" fill="none" xmlns="http://www.w3.org/2000/svg">
<path d="M2.53199 6.50104C2.14086 6.50104 1.74972 6.18187 1.55416 6.04509C0.57632 5.40677 0.282969 5.17879 0.0874023 5.04201V6.95698C0.0874023 7.20875 0.306346 7.41293 0.57632 7.41293H4.48766C4.75764 7.41293 4.97658 7.20875 4.97658 6.95698V5.04201C4.78101 5.17879 4.48766 5.40677 3.50983 6.04509C3.31426 6.18187 2.92313 6.50104 2.53199 6.50104ZM4.48766 3.76536H0.57632C0.306346 3.76536 0.0874023 3.96954 0.0874023 4.22131V4.44928C0.478537 4.72285 0.429645 4.72285 1.84751 5.68033C1.99418 5.77152 2.28753 6.04509 2.53199 6.04509C2.77645 6.04509 3.0698 5.77152 3.21648 5.72593C4.63434 4.76844 4.58545 4.76844 4.97658 4.49488V4.22131C4.97658 3.96954 4.75764 3.76536 4.48766 3.76536ZM8.399 2.39753H3.50983C3.23985 2.39753 3.02091 2.6017 3.02091 2.85347V3.30942H4.48766C4.99507 3.30942 5.4134 3.67161 5.46107 4.13325L5.4655 4.13012V6.04509H8.399C8.66898 6.04509 8.88792 5.84091 8.88792 5.58914V2.85347C8.88792 2.6017 8.66898 2.39753 8.399 2.39753ZM7.91009 4.22131H6.93225V3.30942H7.91009V4.22131ZM2.53199 2.85347C2.53199 2.35065 2.97064 1.94158 3.50983 1.94158H6.93225V0.573743C6.93225 0.321976 6.71331 0.117798 6.44333 0.117798H1.55416C1.28418 0.117798 1.06524 0.321976 1.06524 0.573743V3.30942H2.53199V2.85347Z" fill="#CE7C02"/>
</svg>
