<svg width="139" height="108" viewBox="0 0 139 108" fill="none" xmlns="http://www.w3.org/2000/svg">
<g clip-path="url(#clip0_2118_25)">
<rect width="139" height="108" rx="28.6831" fill="#D3BEBE"/>
<path d="M78.3331 40.6529C78.3329 42.0569 77.7777 43.4039 76.7885 44.4002C74.5111 46.6962 72.3015 49.0902 69.9378 51.3022C69.6739 51.5426 69.3278 51.6726 68.9709 51.6652C68.614 51.6578 68.2735 51.5137 68.0198 51.2626L61.2111 44.4026C60.2214 43.4056 59.666 42.0577 59.666 40.6529C59.666 39.2481 60.2214 37.9002 61.2111 36.9032C61.705 36.4057 62.2924 36.0109 62.9396 35.7414C63.5867 35.472 64.2808 35.3332 64.9818 35.3332C65.6828 35.3332 66.3769 35.472 67.024 35.7414C67.6712 36.0109 68.2586 36.4057 68.7525 36.9032L68.9998 37.1529L69.2471 36.9032C69.9884 36.1539 70.936 35.6421 71.969 35.4331C73.0021 35.224 74.0741 35.327 75.0484 35.7291C76.0227 36.1312 76.8554 36.8141 77.4403 37.691C78.0253 38.5678 78.3361 39.5989 78.3331 40.6529Z" stroke="#B59090" stroke-width="2.17718" stroke-linejoin="round"/>
<path d="M83.0005 72.6667L91.9232 63.744C92.1858 63.4817 92.3335 63.1258 92.3338 62.7547V50.5C92.3338 49.5717 91.9651 48.6815 91.3087 48.0251C90.6523 47.3687 89.7621 47 88.8338 47C87.9056 47 87.0153 47.3687 86.3589 48.0251C85.7026 48.6815 85.3338 49.5717 85.3338 50.5V61" stroke="#B59090" stroke-width="2.17718" stroke-linecap="round" stroke-linejoin="round"/>
<path d="M80.596 63.2622L82.598 61.2602C82.7032 61.1551 82.7866 61.0304 82.8435 60.893C82.9003 60.7557 82.9295 60.6085 82.9294 60.4598C82.929 60.25 82.8704 60.0444 82.76 59.866C82.6495 59.6876 82.4917 59.5434 82.304 59.4495L81.2704 58.9338C80.3946 58.496 79.4034 58.3446 78.4369 58.5012C77.4704 58.6579 76.5777 59.1145 75.885 59.8065L73.7967 61.8948C72.9215 62.7698 72.4296 63.9566 72.4294 65.1942V72.5955M52.596 72.5955L43.6734 63.6728C43.4107 63.4105 43.263 63.0547 43.2627 62.6835V50.4288C43.2627 49.5006 43.6314 48.6103 44.2878 47.954C44.9442 47.2976 45.8344 46.9288 46.7627 46.9288C47.691 46.9288 48.5812 47.2976 49.2376 47.954C49.8939 48.6103 50.2627 49.5006 50.2627 50.4288V60.9288" stroke="#B59090" stroke-width="2.17718" stroke-linecap="round" stroke-linejoin="round"/>
<path d="M55.0003 63.3327L52.9983 61.3307C52.8932 61.2256 52.8099 61.1008 52.7531 60.9635C52.6962 60.8262 52.667 60.679 52.667 60.5304C52.667 60.1034 52.9097 59.7137 53.2923 59.5201L54.326 59.0044C55.2017 58.5665 56.193 58.4152 57.1595 58.5718C58.1259 58.7284 59.0187 59.1851 59.7113 59.8771L61.7997 61.9654C62.6749 62.8404 63.1667 64.0272 63.167 65.2647V72.6661" stroke="#B59090" stroke-width="2.17718" stroke-linecap="round" stroke-linejoin="round"/>
</g>
<defs>
<clipPath id="clip0_2118_25">
<rect width="139" height="108" fill="white"/>
</clipPath>
</defs>
</svg>
