<svg width="9" height="8" viewBox="0 0 9 8" fill="none" xmlns="http://www.w3.org/2000/svg">
<path d="M2.53199 6.50094C2.14086 6.50094 1.74972 6.18178 1.55416 6.045C0.57632 5.40667 0.282969 5.1787 0.0874023 5.04192V6.95689C0.0874023 7.20866 0.306346 7.41284 0.57632 7.41284H4.48766C4.75764 7.41284 4.97658 7.20866 4.97658 6.95689V5.04192C4.78101 5.1787 4.48766 5.40667 3.50983 6.045C3.31426 6.18178 2.92313 6.50094 2.53199 6.50094ZM4.48766 3.76527H0.57632C0.306346 3.76527 0.0874023 3.96945 0.0874023 4.22122V4.44919C0.478537 4.72276 0.429645 4.72276 1.84751 5.68024C1.99418 5.77143 2.28753 6.045 2.53199 6.045C2.77645 6.045 3.0698 5.77143 3.21648 5.72584C4.63434 4.76835 4.58545 4.76835 4.97658 4.49478V4.22122C4.97658 3.96945 4.75764 3.76527 4.48766 3.76527ZM8.399 2.39743H3.50983C3.23985 2.39743 3.02091 2.60161 3.02091 2.85338V3.30933H4.48766C4.99507 3.30933 5.4134 3.67152 5.46107 4.13316L5.4655 4.13003V6.045H8.399C8.66898 6.045 8.88792 5.84082 8.88792 5.58905V2.85338C8.88792 2.60161 8.66898 2.39743 8.399 2.39743ZM7.91009 4.22122H6.93225V3.30933H7.91009V4.22122ZM2.53199 2.85338C2.53199 2.35056 2.97064 1.94149 3.50983 1.94149H6.93225V0.573652C6.93225 0.321884 6.71331 0.117706 6.44333 0.117706H1.55416C1.28418 0.117706 1.06524 0.321884 1.06524 0.573652V3.30933H2.53199V2.85338Z" fill="#CE7C02"/>
</svg>
