<svg width="9" height="8" viewBox="0 0 9 8" fill="none" xmlns="http://www.w3.org/2000/svg">
<path d="M8.63695 5.91194L6.7118 5.25668C6.62956 5.22884 6.53816 5.22298 6.45136 5.23997C6.36456 5.25695 6.28705 5.29588 6.23051 5.35087L5.37795 6.17814C4.03993 5.67711 2.96313 4.82192 2.33226 3.75927L3.3739 3.08216C3.44329 3.03734 3.4924 2.97579 3.5138 2.90682C3.5352 2.83785 3.52773 2.76522 3.49251 2.69993L2.66744 1.17098C2.62879 1.10059 2.56042 1.04313 2.47413 1.00849C2.38784 0.973848 2.28903 0.964206 2.19475 0.981226L0.407114 1.30886C0.316215 1.32553 0.235114 1.36618 0.177048 1.42417C0.118983 1.48216 0.0873814 1.55407 0.0874024 1.62816C0.0874024 5.12972 3.66096 7.96237 8.06301 7.96237C8.15633 7.96242 8.24692 7.93733 8.31997 7.89121C8.39303 7.8451 8.44423 7.78067 8.46523 7.70845L8.87776 6.28872C8.89905 6.21347 8.88666 6.13469 8.8427 6.06592C8.79875 5.99715 8.72599 5.9427 8.63695 5.91194Z" fill="#CE7C02"/>
</svg>
