<svg width="102" height="102" viewBox="0 0 102 102" fill="none" xmlns="http://www.w3.org/2000/svg">
<g clip-path="url(#clip0_3022_2588)">
<path d="M101.992 76.1161C101.992 76.6741 101.975 77.8861 101.941 78.8211C101.897 81.0264 101.717 83.2269 101.403 85.4101C101.035 87.3243 100.414 89.1809 99.556 90.9311C97.6644 94.6594 94.6333 97.6874 90.903 99.5751C89.1429 100.435 87.2757 101.056 85.351 101.422C83.1841 101.731 81.0004 101.907 78.812 101.95C77.876 101.983 76.664 102 76.112 102L25.889 101.992C25.331 101.992 24.12 101.975 23.184 101.941C20.9787 101.897 18.7782 101.717 16.595 101.403C14.6808 101.035 12.8242 100.414 11.074 99.5561C7.34234 97.6661 4.31102 94.6347 2.421 90.9031C1.56213 89.1428 0.942308 87.2756 0.578 85.3511C0.269527 83.1842 0.0932012 81.0005 0.05 78.8121C0.0202449 77.9124 0.00357652 77.0123 0 76.1121L0.008 25.8881C0.008 25.3301 0.025 24.1181 0.059 23.1831C0.102937 20.9778 0.282611 18.7773 0.597 16.5941C0.964753 14.6799 1.58588 12.8232 2.444 11.0731C4.33442 7.34222 7.36569 4.31166 11.097 2.42209C12.8571 1.56163 14.7243 0.940131 16.649 0.574094C18.8159 0.265518 20.9996 0.0891913 23.188 0.0460938C24.124 0.0130938 25.336 -0.00390625 25.888 -0.00390625L76.116 0.00809377C76.675 0.00809377 77.886 0.0250937 78.821 0.0590937C81.0263 0.103046 83.2268 0.282719 85.41 0.597094C87.3242 0.964847 89.1809 1.58598 90.931 2.44409C94.6594 4.3356 97.6874 7.36677 99.575 11.0971C100.436 12.8572 101.057 14.7244 101.423 16.6491C101.731 18.816 101.908 20.9997 101.951 23.1881C101.984 24.1241 102.001 25.3361 102.001 25.8881L101.993 76.1111L101.992 76.1161Z" fill="url(#paint0_linear_3022_2588)"/>
<path d="M78.0226 24.1317C71.7502 17.8576 63.4114 14.0768 54.5589 13.4933C45.7064 12.9098 36.9435 15.5634 29.9019 20.96C22.8603 26.3565 18.0198 34.1283 16.2819 42.8281C14.5439 51.5279 16.0269 60.5629 20.4546 68.2507L15.2656 87.1987L34.6556 82.1137C40.0188 85.0338 46.028 86.564 52.1346 86.5647H52.1496C59.3828 86.5645 66.4536 84.4197 72.468 80.4016C78.4825 76.3835 83.1707 70.6724 85.9398 63.9902C88.709 57.3081 89.4348 49.955 88.0256 42.8604C86.6164 35.7658 83.1354 29.2482 78.0226 24.1317ZM52.1526 80.3887H52.1406C46.6965 80.3895 41.3522 78.9264 36.6676 76.1527L35.5576 75.4937L24.0516 78.5107L27.1226 67.2957L26.3996 66.1457C22.8173 60.4368 21.2338 53.6992 21.8979 46.9922C22.562 40.2852 25.4361 33.9891 30.0684 29.0935C34.7008 24.198 40.8286 20.9806 47.4887 19.9472C54.1488 18.9138 60.9635 20.1229 66.8615 23.3845C72.7596 26.6461 77.4065 31.7753 80.0718 37.9657C82.7372 44.1561 83.2698 51.0567 81.5859 57.5827C79.902 64.1088 76.0972 69.8903 70.7695 74.0183C65.4419 78.1464 58.8934 80.3869 52.1536 80.3877L52.1526 80.3887ZM68.8226 57.6277C67.9086 57.1707 63.4156 54.9597 62.5776 54.6547C61.7396 54.3497 61.1306 54.1977 60.5216 55.1117C59.9126 56.0257 58.1606 58.0847 57.6276 58.6937C57.0946 59.3027 56.5616 59.3797 55.6476 58.9227C52.9531 57.8495 50.4662 56.3148 48.2986 54.3877C46.3005 52.5409 44.5872 50.408 43.2146 48.0587C42.6816 47.1437 43.1576 46.6497 43.6146 46.1937C44.0256 45.7847 44.5286 45.1267 44.9856 44.5937C45.3616 44.132 45.6693 43.6188 45.8996 43.0697C46.021 42.8177 46.0776 42.5394 46.0643 42.2601C46.051 41.9807 45.9683 41.7091 45.8236 41.4697C45.5956 41.0127 43.7676 36.5157 43.0056 34.6867C42.2636 32.9047 41.5056 33.1457 40.9496 33.1187C40.366 33.0938 39.7818 33.0832 39.1976 33.0867C38.7345 33.0988 38.279 33.2066 37.8596 33.4033C37.4402 33.6 37.066 33.8814 36.7606 34.2297C35.7271 35.2082 34.9088 36.3914 34.3578 37.7037C33.8069 39.016 33.5354 40.4287 33.5606 41.8517C33.5606 46.3517 36.8356 50.6927 37.2926 51.3027C37.7496 51.9127 43.7366 61.1407 52.9046 65.1027C54.6062 65.8357 56.3453 66.4783 58.1146 67.0277C59.9791 67.5941 61.9499 67.7181 63.8706 67.3897C65.6266 67.1277 69.2776 65.1797 70.0396 63.0457C70.6374 61.6807 70.8227 60.1707 70.5726 58.7017C70.3436 58.3207 69.7346 58.0917 68.8206 57.6347L68.8226 57.6277Z" fill="white"/>
</g>
<defs>
<linearGradient id="paint0_linear_3022_2588" x1="51.0005" y1="-0.00390625" x2="51.0005" y2="102" gradientUnits="userSpaceOnUse">
<stop stop-color="#61FD7D"/>
<stop offset="1" stop-color="#2BB826"/>
</linearGradient>
<clipPath id="clip0_3022_2588">
<rect width="102" height="102" fill="white"/>
</clipPath>
</defs>
</svg>
